<svg width="1025" height="512" viewBox="0 0 1025 512" fill="none" xmlns="http://www.w3.org/2000/svg">
<rect width="1024" height="500" fill="#1B2136"/>
<g opacity="0.6" clip-path="url(#clip0_192_4)">
<rect width="343.696" height="292.778" transform="translate(681 4)" fill="url(#paint0_linear_192_4)" fill-opacity="0.3"/>
<line y1="-0.276728" x2="305.691" y2="-0.276728" transform="matrix(-0.561062 0.827774 -0.941139 -0.338019 977.281 71.3789)" stroke="#4A52A1" stroke-width="0.553455"/>
<line y1="-0.276728" x2="305.691" y2="-0.276728" transform="matrix(-0.581595 0.813479 -0.932389 -0.361457 934.983 12.4514)" stroke="#4A52A1" stroke-width="0.553455"/>
<line y1="-0.276728" x2="305.691" y2="-0.276728" transform="matrix(-0.581595 0.813479 -0.932389 -0.361457 865.373 36.0026)" stroke="#4A52A1" stroke-width="0.553455"/>
<line y1="-0.276728" x2="305.691" y2="-0.276728" transform="matrix(-0.581595 0.813479 -0.932389 -0.361457 858.788 3.44653)" stroke="#4A52A1" stroke-width="0.553455"/>
</g>
<circle cx="983.008" cy="458.607" r="15.7025" transform="rotate(-180 983.008 458.607)" fill="#4A52A1"/>
<circle cx="948.463" cy="458.607" r="15.7025" transform="rotate(-180 948.463 458.607)" fill="#4A52A1"/>
<circle cx="913.918" cy="458.607" r="15.7025" transform="rotate(-180 913.918 458.607)" fill="#4A52A1"/>
<circle cx="879.372" cy="458.607" r="15.7025" transform="rotate(-180 879.372 458.607)" fill="#4A52A1"/>
<circle cx="844.827" cy="458.607" r="15.7025" transform="rotate(-180 844.827 458.607)" fill="#4A52A1"/>
<circle cx="983.008" cy="418.202" r="15.7025" transform="rotate(-180 983.008 418.202)" fill="#4A52A1"/>
<circle cx="948.463" cy="418.202" r="15.7025" transform="rotate(-180 948.463 418.202)" fill="#4A52A1"/>
<circle cx="913.918" cy="418.202" r="15.7025" transform="rotate(-180 913.918 418.202)" fill="#4A52A1"/>
<circle cx="879.372" cy="418.202" r="15.7025" transform="rotate(-180 879.372 418.202)" fill="#4A52A1"/>
<circle cx="844.827" cy="418.202" r="15.7025" transform="rotate(-180 844.827 418.202)" fill="#4A52A1"/>
<circle cx="983.008" cy="377.798" r="15.7025" transform="rotate(-180 983.008 377.798)" fill="#313662"/>
<circle cx="948.463" cy="377.798" r="15.7025" transform="rotate(-180 948.463 377.798)" fill="#313662"/>
<circle cx="913.918" cy="377.798" r="15.7025" transform="rotate(-180 913.918 377.798)" fill="#313662"/>
<circle cx="879.372" cy="377.798" r="15.7025" transform="rotate(-180 879.372 377.798)" fill="#313662"/>
<circle cx="844.827" cy="377.798" r="15.7025" transform="rotate(-180 844.827 377.798)" fill="#313662"/>
<circle cx="983.008" cy="337.392" r="15.7025" transform="rotate(-180 983.008 337.392)" fill="#232754"/>
<circle cx="948.463" cy="337.392" r="15.7025" transform="rotate(-180 948.463 337.392)" fill="#232754"/>
<circle cx="913.918" cy="337.392" r="15.7025" transform="rotate(-180 913.918 337.392)" fill="#232754"/>
<circle cx="879.372" cy="337.392" r="15.7025" transform="rotate(-180 879.372 337.392)" fill="#232754"/>
<circle cx="844.827" cy="337.392" r="15.7025" transform="rotate(-180 844.827 337.392)" fill="#232754"/>
<circle cx="179.008" cy="310.607" r="15.7025" transform="rotate(-180 179.008 310.607)" fill="#4A52A1"/>
<circle cx="144.463" cy="310.607" r="15.7025" transform="rotate(-180 144.463 310.607)" fill="#4A52A1"/>
<circle cx="109.918" cy="310.607" r="15.7025" transform="rotate(-180 109.918 310.607)" fill="#4A52A1"/>
<circle cx="75.3722" cy="310.607" r="15.7025" transform="rotate(-180 75.3722 310.607)" fill="#4A52A1"/>
<circle cx="40.8268" cy="310.607" r="15.7025" transform="rotate(-180 40.8268 310.607)" fill="#4A52A1"/>
<circle cx="179.008" cy="270.202" r="15.7025" transform="rotate(-180 179.008 270.202)" fill="#4A52A1"/>
<circle cx="144.463" cy="270.202" r="15.7025" transform="rotate(-180 144.463 270.202)" fill="#4A52A1"/>
<circle cx="109.918" cy="270.202" r="15.7025" transform="rotate(-180 109.918 270.202)" fill="#4A52A1"/>
<circle cx="75.3722" cy="270.202" r="15.7025" transform="rotate(-180 75.3722 270.202)" fill="#4A52A1"/>
<circle cx="40.8268" cy="270.202" r="15.7025" transform="rotate(-180 40.8268 270.202)" fill="#4A52A1"/>
<circle cx="179.008" cy="229.798" r="15.7025" transform="rotate(-180 179.008 229.798)" fill="#313662"/>
<circle cx="144.463" cy="229.798" r="15.7025" transform="rotate(-180 144.463 229.798)" fill="#313662"/>
<circle cx="109.918" cy="229.798" r="15.7025" transform="rotate(-180 109.918 229.798)" fill="#313662"/>
<circle cx="75.3722" cy="229.798" r="15.7025" transform="rotate(-180 75.3722 229.798)" fill="#313662"/>
<circle cx="40.8268" cy="229.798" r="15.7025" transform="rotate(-180 40.8268 229.798)" fill="#313662"/>
<circle cx="179.008" cy="189.392" r="15.7025" transform="rotate(-180 179.008 189.392)" fill="#232754"/>
<circle cx="144.463" cy="189.392" r="15.7025" transform="rotate(-180 144.463 189.392)" fill="#232754"/>
<circle cx="109.918" cy="189.392" r="15.7025" transform="rotate(-180 109.918 189.392)" fill="#232754"/>
<circle cx="75.3722" cy="189.392" r="15.7025" transform="rotate(-180 75.3722 189.392)" fill="#232754"/>
<circle cx="40.8268" cy="189.392" r="15.7025" transform="rotate(-180 40.8268 189.392)" fill="#232754"/>
<defs>
<linearGradient id="paint0_linear_192_4" x1="1.28037e-06" y1="292.778" x2="244.09" y2="-67.4858" gradientUnits="userSpaceOnUse">
<stop offset="0.2865" stop-color="#1B2136"/>
<stop offset="1" stop-color="#232754"/>
</linearGradient>
<clipPath id="clip0_192_4">
<rect width="343.696" height="292.778" fill="white" transform="translate(681 4)"/>
</clipPath>
</defs>
</svg>
