<svg width="1025" height="500" viewBox="0 0 1025 500" fill="none" xmlns="http://www.w3.org/2000/svg">
<rect width="1024" height="500" fill="#1B2136"/>
<g opacity="0.6" clip-path="url(#clip0_192_4)">
<rect width="343.696" height="292.778" transform="translate(681 4)" fill="url(#paint0_linear_192_4)" fill-opacity="0.3"/>
<line y1="-0.276728" x2="305.691" y2="-0.276728" transform="matrix(-0.561062 0.827774 -0.941139 -0.338019 977.281 71.3789)" stroke="#4A52A1" stroke-width="0.553455"/>
<line y1="-0.276728" x2="305.691" y2="-0.276728" transform="matrix(-0.581595 0.813479 -0.932389 -0.361457 934.983 12.4514)" stroke="#4A52A1" stroke-width="0.553455"/>
<line y1="-0.276728" x2="305.691" y2="-0.276728" transform="matrix(-0.581595 0.813479 -0.932389 -0.361457 865.373 36.0026)" stroke="#4A52A1" stroke-width="0.553455"/>
<line y1="-0.276728" x2="305.691" y2="-0.276728" transform="matrix(-0.581595 0.813479 -0.932389 -0.361457 858.788 3.44653)" stroke="#4A52A1" stroke-width="0.553455"/>
</g>
<circle cx="932.008" cy="404.607" r="15.7025" transform="rotate(-180 932.008 404.607)" fill="#4A52A1"/>
<circle cx="897.463" cy="404.607" r="15.7025" transform="rotate(-180 897.463 404.607)" fill="#4A52A1"/>
<circle cx="862.918" cy="404.607" r="15.7025" transform="rotate(-180 862.918 404.607)" fill="#4A52A1"/>
<circle cx="828.372" cy="404.607" r="15.7025" transform="rotate(-180 828.372 404.607)" fill="#4A52A1"/>
<circle cx="793.827" cy="404.607" r="15.7025" transform="rotate(-180 793.827 404.607)" fill="#4A52A1"/>
<circle cx="932.008" cy="364.202" r="15.7025" transform="rotate(-180 932.008 364.202)" fill="#4A52A1"/>
<circle cx="897.463" cy="364.202" r="15.7025" transform="rotate(-180 897.463 364.202)" fill="#4A52A1"/>
<circle cx="862.918" cy="364.202" r="15.7025" transform="rotate(-180 862.918 364.202)" fill="#4A52A1"/>
<circle cx="828.372" cy="364.202" r="15.7025" transform="rotate(-180 828.372 364.202)" fill="#4A52A1"/>
<circle cx="793.827" cy="364.202" r="15.7025" transform="rotate(-180 793.827 364.202)" fill="#4A52A1"/>
<circle cx="932.008" cy="323.798" r="15.7025" transform="rotate(-180 932.008 323.798)" fill="#313662"/>
<circle cx="897.463" cy="323.798" r="15.7025" transform="rotate(-180 897.463 323.798)" fill="#313662"/>
<circle cx="862.918" cy="323.798" r="15.7025" transform="rotate(-180 862.918 323.798)" fill="#313662"/>
<circle cx="828.372" cy="323.798" r="15.7025" transform="rotate(-180 828.372 323.798)" fill="#313662"/>
<circle cx="793.827" cy="323.798" r="15.7025" transform="rotate(-180 793.827 323.798)" fill="#313662"/>
<circle cx="932.008" cy="283.392" r="15.7025" transform="rotate(-180 932.008 283.392)" fill="#232754"/>
<circle cx="897.463" cy="283.392" r="15.7025" transform="rotate(-180 897.463 283.392)" fill="#232754"/>
<circle cx="862.918" cy="283.392" r="15.7025" transform="rotate(-180 862.918 283.392)" fill="#232754"/>
<circle cx="828.372" cy="283.392" r="15.7025" transform="rotate(-180 828.372 283.392)" fill="#232754"/>
<circle cx="793.827" cy="283.392" r="15.7025" transform="rotate(-180 793.827 283.392)" fill="#232754"/>
<circle cx="193.008" cy="208.607" r="15.7025" transform="rotate(-180 193.008 208.607)" fill="#4A52A1"/>
<circle cx="158.463" cy="208.607" r="15.7025" transform="rotate(-180 158.463 208.607)" fill="#4A52A1"/>
<circle cx="123.918" cy="208.607" r="15.7025" transform="rotate(-180 123.918 208.607)" fill="#4A52A1"/>
<circle cx="89.3722" cy="208.607" r="15.7025" transform="rotate(-180 89.3722 208.607)" fill="#4A52A1"/>
<circle cx="54.8268" cy="208.607" r="15.7025" transform="rotate(-180 54.8268 208.607)" fill="#4A52A1"/>
<circle cx="193.008" cy="168.202" r="15.7025" transform="rotate(-180 193.008 168.202)" fill="#4A52A1"/>
<circle cx="158.463" cy="168.202" r="15.7025" transform="rotate(-180 158.463 168.202)" fill="#4A52A1"/>
<circle cx="123.918" cy="168.202" r="15.7025" transform="rotate(-180 123.918 168.202)" fill="#4A52A1"/>
<circle cx="89.3722" cy="168.202" r="15.7025" transform="rotate(-180 89.3722 168.202)" fill="#4A52A1"/>
<circle cx="54.8268" cy="168.202" r="15.7025" transform="rotate(-180 54.8268 168.202)" fill="#4A52A1"/>
<circle cx="193.008" cy="127.798" r="15.7025" transform="rotate(-180 193.008 127.798)" fill="#313662"/>
<circle cx="158.463" cy="127.798" r="15.7025" transform="rotate(-180 158.463 127.798)" fill="#313662"/>
<circle cx="123.918" cy="127.798" r="15.7025" transform="rotate(-180 123.918 127.798)" fill="#313662"/>
<circle cx="89.3722" cy="127.798" r="15.7025" transform="rotate(-180 89.3722 127.798)" fill="#313662"/>
<circle cx="54.8268" cy="127.798" r="15.7025" transform="rotate(-180 54.8268 127.798)" fill="#313662"/>
<circle cx="193.008" cy="87.3925" r="15.7025" transform="rotate(-180 193.008 87.3925)" fill="#232754"/>
<circle cx="158.463" cy="87.3925" r="15.7025" transform="rotate(-180 158.463 87.3925)" fill="#232754"/>
<circle cx="123.918" cy="87.3925" r="15.7025" transform="rotate(-180 123.918 87.3925)" fill="#232754"/>
<circle cx="89.3722" cy="87.3925" r="15.7025" transform="rotate(-180 89.3722 87.3925)" fill="#232754"/>
<circle cx="54.8268" cy="87.3925" r="15.7025" transform="rotate(-180 54.8268 87.3925)" fill="#232754"/>
<defs>
<linearGradient id="paint0_linear_192_4" x1="1.28037e-06" y1="292.778" x2="244.09" y2="-67.4858" gradientUnits="userSpaceOnUse">
<stop offset="0.2865" stop-color="#1B2136"/>
<stop offset="1" stop-color="#232754"/>
</linearGradient>
<clipPath id="clip0_192_4">
<rect width="343.696" height="292.778" fill="white" transform="translate(681 4)"/>
</clipPath>
</defs>
</svg>
